<?xml version="1.0" encoding="UTF-8" standalone="no"?> <svg id="Layer_1" data-name="Layer 1" xmlns="http://www.w3.org/2000/svg" viewBox="0 0 128 128"><defs><style>.cls-1{fill:#2e79bd;}.cls-2{fill:#2d3e50;}</style></defs><title>b</title><path class="cls-1" d="M74.41324,65.84353A14.22425,14.22425,0,0,0,64,61.67033a14.22425,14.22425,0,0,0-10.41324,4.1732L64,76.25478Z"/><path class="cls-2" d="M110.87044,67.1212a14.88729,14.88729,0,0,0-6.08972-4.73887,77.76523,77.76523,0,0,0,.265-8.67275A87.06719,87.06719,0,0,0,101.46786,31.554a17.96031,17.96031,0,0,0,5.55175-12.99429c0-.178-.004-.354-.00791-.53005a16.86422,16.86422,0,0,0-7.95481-13.819A17.21,17.21,0,0,0,82.817,3.09712L64,11.58,45.183,3.09712A17.21,17.21,0,0,0,28.9431,4.21064a16.86422,16.86422,0,0,0-7.95481,13.819c-.00395.176-.00791.35206-.00791.53005A17.96031,17.96031,0,0,0,26.53214,31.554a87.06719,87.06719,0,0,0-3.57789,22.15557,77.76526,77.76526,0,0,0,.265,8.67275,14.88729,14.88729,0,0,0-6.08972,4.73887c-5.55768,7.20124-2.94893,18.13069-.63685,26.09341a89.62,89.62,0,0,0,12.20514,25.13613c1.06209,1.5605,2.35954,3.78951,4.456,3.57591,2.09452-.24327,2.87971-2.7017,3.57987-4.45406A101.48286,101.48286,0,0,0,40.547,106.07638l.002.002A142.375,142.375,0,0,0,54.23153,122.073a14.61869,14.61869,0,0,0,9.63792,4.34923L64,126.42817l.13054-.00594a14.61869,14.61869,0,0,0,9.63792-4.34923A142.375,142.375,0,0,0,87.451,106.07836l.002-.002a101.48286,101.48286,0,0,0,3.81323,11.39621c.70016,1.75236,1.48535,4.21079,3.57987,4.45406,2.09649.21361,3.39394-2.0154,4.456-3.57591a89.62,89.62,0,0,0,12.20514-25.13613C113.81936,85.2519,116.42811,74.32245,110.87044,67.1212ZM99.83418,61.48243v.002a14.20815,14.20815,0,0,0-8.80724,3.4691c-6.97974,5.8326-6.79185,17.06662-6.25387,25.34184a77.41644,77.41644,0,0,0,1.17483,9.187l-.002.004v.002A129.36516,129.36516,0,0,1,70.242,118.60589,9.66125,9.66125,0,0,1,64,121.47571a9.66125,9.66125,0,0,1-6.242-2.86982A129.36516,129.36516,0,0,1,42.05408,99.48825v-.002l-.002-.004a77.41644,77.41644,0,0,0,1.17483-9.187c.538-8.27521.72587-19.50924-6.25387-25.34184a14.20815,14.20815,0,0,0-8.80724-3.4691v-.002a72.73978,72.73978,0,0,1-.05538-11.24A16.28059,16.28059,0,0,0,56.94906,36.57176a16.08362,16.08362,0,0,0-2.15187-4.94456,16.263,16.263,0,0,0-24.47159-3.297,13.07436,13.07436,0,0,1-4.40065-9.77045c0-.13053.002-.25909.00593-.38765a11.77442,11.77442,0,0,1,5.63679-9.77045,12.28209,12.28209,0,0,1,11.58411-.79707L64,17.00319,84.84823,7.60457a12.28209,12.28209,0,0,1,11.58411.79707,11.77442,11.77442,0,0,1,5.63679,9.77045c.00395.12855.00593.25711.00593.38765a13.07436,13.07436,0,0,1-4.40065,9.77045,16.28254,16.28254,0,1,0,2.21516,21.91229A72.73978,72.73978,0,0,1,99.83418,61.48243ZM29.80345,40.48982a11.25083,11.25083,0,0,1,1.5071-5.64075,11.40767,11.40767,0,0,1,3.65106-3.8607,11.31823,11.31823,0,0,1,13.24745.63883,11.33795,11.33795,0,1,1-18.40561,8.86262Zm68.3931,0a11.34981,11.34981,0,1,1-1.5071-5.64075A11.353,11.353,0,0,1,98.19655,40.48982Z"/><path class="cls-1" d="M47.538,40.48982a6.31692,6.31692,0,0,0-.36788-2.136A4.70282,4.70282,0,0,1,39.249,34.92226a4.59963,4.59963,0,0,1,.03165-.54786,6.344,6.344,0,0,0-1.61786.75553,6.46722,6.46722,0,0,0-2.06683,2.18549A6.39365,6.39365,0,1,0,47.538,40.48982Z"/><path class="cls-1" d="M90.75542,39.6275a4.70727,4.70727,0,0,1-4.642-5.48846,6.29151,6.29151,0,0,0-3.23571,1.35086,6.46143,6.46143,0,0,0-2.02529,2.79663,6.3954,6.3954,0,1,0,12.399,2.2033,6.506,6.506,0,0,0-.17207-1.47941A4.6553,4.6553,0,0,1,90.75542,39.6275Z"/><circle class="cls-1" cx="69.56041" cy="101.99745" r="3.63672"/><circle class="cls-1" cx="58.43959" cy="101.99745" r="3.63672"/><circle class="cls-1" cx="52.87918" cy="91.74546" r="3.63672"/><circle class="cls-1" cx="64" cy="91.74546" r="3.63672"/><circle class="cls-1" cx="75.12081" cy="91.74546" r="3.63672"/></svg>